# xmcd
#
# Track frame offsets:
#	150
#	19036
#	33088
#	46087
#	61247
#	74458
#	89829
#	111628
#	129117
#	147182
#	165269
#	182402
#	199488
#	213772
#	231720
#	245381
#	263238
#
# Disc length: 3691 seconds
#
# Revision: 1
# Processed by: cddbd v1.5.2PL0 Copyright (c) Steve Scherf et al.
# Submitted via: audiograbber 1.83.01
#
DISCID=f00e6911
DTITLE=Henning Pertiet and Andreas Bock - The Fabulous Boogie
DYEAR=2007
DGENRE=Blues
TTITLE0=The Fabulous Boogie
TTITLE1=Sierksdorf
TTITLE2=Tavor Lavor
TTITLE3=Major E
TTITLE4=Jueterboogie
TTITLE5=It Was A Perfect Plan
TTITLE6=Ridin' Home
TTITLE7=Abdullah's Blues
TTITLE8=Royal Stew
TTITLE9=DD and The Vegetable Cake
TTITLE10=Little Conny In The Saladfield
TTITLE11=Taranaki
TTITLE12=Riffin' Boogie
TTITLE13=Rocky
TTITLE14=BB's Boogie
TTITLE15=Boogie In The Shack
TTITLE16=Cow Cow Blues
EXTD=
EXTT0=
EXTT1=
EXTT2=
EXTT3=
EXTT4=
EXTT5=
EXTT6=
EXTT7=
EXTT8=
EXTT9=
EXTT10=
EXTT11=
EXTT12=
EXTT13=
EXTT14=
EXTT15=
EXTT16=
PLAYORDER=
